<?xml version="1.0" encoding="UTF-8"?>
<svg id="Layer_1" xmlns="http://www.w3.org/2000/svg" version="1.1" viewBox="0 0 512 512">
  <!-- Generator: Adobe Illustrator 29.0.1, SVG Export Plug-In . SVG Version: 2.1.0 Build 192)  -->
  <defs>
    <style>
      .st0 {
        fill: none;
      }

      .st1 {
        fill: #40ffa7;
      }

      .st2 {
        fill: #050761;
      }
    </style>
  </defs>
  <rect class="st0" width="512" height="512"/>
  <path class="st2" d="M0,265.3l217.2,217.2h294.8c-1.1-2.2,0-250.2,0-250.2l-62.8-202.8H0v235.8Z"/>
  <g>
    <path class="st1" d="M291.4,335.1c-46.9-3.9-68.1-63.1-31.9-94.3s34.6-15.9,53.7-10.5V84.5h89v36h-53.7v168.9c0,1.2-2.1,8.2-2.7,9.9-7,19.5-26,34.1-46.8,35.8-2.2.2-5.4.2-7.6,0ZM293.7,263.2c-23.4,1.6-21.1,37.9,3.1,35.8,23-2,20-37.5-3.1-35.8Z"/>
    <rect class="st1" x="62.3" y="84.5" width="214.8" height="36"/>
    <rect class="st1" x="62.3" y="155.8" width="214.8" height="36"/>
    <rect class="st1" x="62.3" y="227.8" width="143.5" height="35.2"/>
  </g>
</svg>