<?xml version="1.0" encoding="UTF-8"?>
<svg id="Layer_1" xmlns="http://www.w3.org/2000/svg" xmlns:xlink="http://www.w3.org/1999/xlink" version="1.1" viewBox="0 0 512 512">
  <!-- Generator: Adobe Illustrator 29.0.1, SVG Export Plug-In . SVG Version: 2.1.0 Build 192)  -->
  <defs>
    <style>
      .st0 {
        fill: url(#linear-gradient);
      }

      .st1 {
        fill: #fff;
      }

      .st2, .st3 {
        stroke: #000;
      }

      .st2, .st3, .st4 {
        fill: none;
        stroke-miterlimit: 10;
      }

      .st3, .st5 {
        opacity: .5;
      }

      .st4 {
        stroke: #ff4040;
      }

      .st6 {
        display: none;
      }
    </style>
    <linearGradient id="linear-gradient" x1="48.4" y1="48.4" x2="453.2" y2="453.2" gradientUnits="userSpaceOnUse">
      <stop offset="0" stop-color="#fd7b5d"/>
      <stop offset="1" stop-color="#f9292c"/>
    </linearGradient>
  </defs>
  <rect class="st0" x="1.9" y="1.9" width="508.2" height="508.2" rx="125" ry="125"/>
  <g class="st6">
    <circle class="st3" cx="256" cy="256" r="136.4"/>
    <circle class="st3" cx="256" cy="256" r="54.6"/>
    <circle class="st3" cx="256" cy="256" r="204.6"/>
    <g id="Guide" class="st5">
      <rect class="st2" width="85.3" height="85.3"/>
      <rect class="st2" x="85.3" width="85.3" height="85.3"/>
      <rect class="st2" x="170.7" width="85.3" height="85.3"/>
      <rect class="st2" x="256" width="85.3" height="85.3"/>
      <rect class="st2" x="341.3" width="85.3" height="85.3"/>
      <rect class="st2" x="426.7" width="85.3" height="85.3"/>
      <rect class="st2" y="85.3" width="85.3" height="85.3"/>
      <rect class="st2" x="85.3" y="85.3" width="85.3" height="85.3"/>
      <rect class="st2" x="170.7" y="85.3" width="85.3" height="85.3"/>
      <rect class="st2" x="256" y="85.3" width="85.3" height="85.3"/>
      <rect class="st2" x="341.3" y="85.3" width="85.3" height="85.3"/>
      <rect class="st2" x="426.7" y="85.3" width="85.3" height="85.3"/>
      <rect class="st2" y="170.7" width="85.3" height="85.3"/>
      <rect class="st2" x="85.3" y="170.7" width="85.3" height="85.3"/>
      <rect class="st2" x="170.7" y="170.7" width="85.3" height="85.3"/>
      <rect class="st2" x="256" y="170.7" width="85.3" height="85.3"/>
      <rect class="st2" x="341.3" y="170.7" width="85.3" height="85.3"/>
      <rect class="st2" x="426.7" y="170.7" width="85.3" height="85.3"/>
      <rect class="st2" y="256" width="85.3" height="85.3"/>
      <rect class="st2" x="85.3" y="256" width="85.3" height="85.3"/>
      <rect class="st2" x="170.7" y="256" width="85.3" height="85.3"/>
      <rect class="st2" x="256" y="256" width="85.3" height="85.3"/>
      <rect class="st2" x="341.3" y="256" width="85.3" height="85.3"/>
      <rect class="st2" x="426.7" y="256" width="85.3" height="85.3"/>
      <rect class="st2" y="341.3" width="85.3" height="85.3"/>
      <rect class="st2" x="85.3" y="341.3" width="85.3" height="85.3"/>
      <rect class="st2" x="170.7" y="341.3" width="85.3" height="85.3"/>
      <rect class="st2" x="256" y="341.3" width="85.3" height="85.3"/>
      <rect class="st2" x="341.3" y="341.3" width="85.3" height="85.3"/>
      <rect class="st2" x="426.7" y="341.3" width="85.3" height="85.3"/>
      <rect class="st2" y="426.7" width="85.3" height="85.3"/>
      <rect class="st2" x="85.3" y="426.7" width="85.3" height="85.3"/>
      <rect class="st2" x="170.7" y="426.7" width="85.3" height="85.3"/>
      <rect class="st2" x="256" y="426.7" width="85.3" height="85.3"/>
      <rect class="st2" x="341.3" y="426.7" width="85.3" height="85.3"/>
      <rect class="st2" x="426.7" y="426.7" width="85.3" height="85.3"/>
    </g>
    <line class="st3" x1="512" y2="512"/>
    <line class="st3" x1="0" y1="0" x2="512" y2="512"/>
    <rect class="st3" x="51" y="51" width="410" height="410"/>
  </g>
  <g class="st6">
    <rect class="st4" width="32" height="32"/>
    <rect class="st4" x="32" width="32" height="32"/>
    <rect class="st4" x="64" width="32" height="32"/>
    <rect class="st4" x="96" width="32" height="32"/>
    <rect class="st4" x="128" width="32" height="32"/>
    <rect class="st4" x="160" width="32" height="32"/>
    <rect class="st4" x="192" width="32" height="32"/>
    <rect class="st4" x="224" width="32" height="32"/>
    <rect class="st4" x="256" width="32" height="32"/>
    <rect class="st4" x="288" width="32" height="32"/>
    <rect class="st4" x="320" width="32" height="32"/>
    <rect class="st4" x="352" width="32" height="32"/>
    <rect class="st4" x="384" width="32" height="32"/>
    <rect class="st4" x="416" width="32" height="32"/>
    <rect class="st4" x="448" width="32" height="32"/>
    <rect class="st4" x="480" width="32" height="32"/>
    <rect class="st4" y="32" width="32" height="32"/>
    <rect class="st4" x="32" y="32" width="32" height="32"/>
    <rect class="st4" x="64" y="32" width="32" height="32"/>
    <rect class="st4" x="96" y="32" width="32" height="32"/>
    <rect class="st4" x="128" y="32" width="32" height="32"/>
    <rect class="st4" x="160" y="32" width="32" height="32"/>
    <rect class="st4" x="192" y="32" width="32" height="32"/>
    <rect class="st4" x="224" y="32" width="32" height="32"/>
    <rect class="st4" x="256" y="32" width="32" height="32"/>
    <rect class="st4" x="288" y="32" width="32" height="32"/>
    <rect class="st4" x="320" y="32" width="32" height="32"/>
    <rect class="st4" x="352" y="32" width="32" height="32"/>
    <rect class="st4" x="384" y="32" width="32" height="32"/>
    <rect class="st4" x="416" y="32" width="32" height="32"/>
    <rect class="st4" x="448" y="32" width="32" height="32"/>
    <rect class="st4" x="480" y="32" width="32" height="32"/>
    <rect class="st4" y="64" width="32" height="32"/>
    <rect class="st4" x="32" y="64" width="32" height="32"/>
    <rect class="st4" x="64" y="64" width="32" height="32"/>
    <rect class="st4" x="96" y="64" width="32" height="32"/>
    <rect class="st4" x="128" y="64" width="32" height="32"/>
    <rect class="st4" x="160" y="64" width="32" height="32"/>
    <rect class="st4" x="192" y="64" width="32" height="32"/>
    <rect class="st4" x="224" y="64" width="32" height="32"/>
    <rect class="st4" x="256" y="64" width="32" height="32"/>
    <rect class="st4" x="288" y="64" width="32" height="32"/>
    <rect class="st4" x="320" y="64" width="32" height="32"/>
    <rect class="st4" x="352" y="64" width="32" height="32"/>
    <rect class="st4" x="384" y="64" width="32" height="32"/>
    <rect class="st4" x="416" y="64" width="32" height="32"/>
    <rect class="st4" x="448" y="64" width="32" height="32"/>
    <rect class="st4" x="480" y="64" width="32" height="32"/>
    <rect class="st4" y="96" width="32" height="32"/>
    <rect class="st4" x="32" y="96" width="32" height="32"/>
    <rect class="st4" x="64" y="96" width="32" height="32"/>
    <rect class="st4" x="96" y="96" width="32" height="32"/>
    <rect class="st4" x="128" y="96" width="32" height="32"/>
    <rect class="st4" x="160" y="96" width="32" height="32"/>
    <rect class="st4" x="192" y="96" width="32" height="32"/>
    <rect class="st4" x="224" y="96" width="32" height="32"/>
    <rect class="st4" x="256" y="96" width="32" height="32"/>
    <rect class="st4" x="288" y="96" width="32" height="32"/>
    <rect class="st4" x="320" y="96" width="32" height="32"/>
    <rect class="st4" x="352" y="96" width="32" height="32"/>
    <rect class="st4" x="384" y="96" width="32" height="32"/>
    <rect class="st4" x="416" y="96" width="32" height="32"/>
    <rect class="st4" x="448" y="96" width="32" height="32"/>
    <rect class="st4" x="480" y="96" width="32" height="32"/>
    <rect class="st4" y="128" width="32" height="32"/>
    <rect class="st4" x="32" y="128" width="32" height="32"/>
    <rect class="st4" x="64" y="128" width="32" height="32"/>
    <rect class="st4" x="96" y="128" width="32" height="32"/>
    <rect class="st4" x="128" y="128" width="32" height="32"/>
    <rect class="st4" x="160" y="128" width="32" height="32"/>
    <rect class="st4" x="192" y="128" width="32" height="32"/>
    <rect class="st4" x="224" y="128" width="32" height="32"/>
    <rect class="st4" x="256" y="128" width="32" height="32"/>
    <rect class="st4" x="288" y="128" width="32" height="32"/>
    <rect class="st4" x="320" y="128" width="32" height="32"/>
    <rect class="st4" x="352" y="128" width="32" height="32"/>
    <rect class="st4" x="384" y="128" width="32" height="32"/>
    <rect class="st4" x="416" y="128" width="32" height="32"/>
    <rect class="st4" x="448" y="128" width="32" height="32"/>
    <rect class="st4" x="480" y="128" width="32" height="32"/>
    <rect class="st4" y="160" width="32" height="32"/>
    <rect class="st4" x="32" y="160" width="32" height="32"/>
    <rect class="st4" x="64" y="160" width="32" height="32"/>
    <rect class="st4" x="96" y="160" width="32" height="32"/>
    <rect class="st4" x="128" y="160" width="32" height="32"/>
    <rect class="st4" x="160" y="160" width="32" height="32"/>
    <rect class="st4" x="192" y="160" width="32" height="32"/>
    <rect class="st4" x="224" y="160" width="32" height="32"/>
    <rect class="st4" x="256" y="160" width="32" height="32"/>
    <rect class="st4" x="288" y="160" width="32" height="32"/>
    <rect class="st4" x="320" y="160" width="32" height="32"/>
    <rect class="st4" x="352" y="160" width="32" height="32"/>
    <rect class="st4" x="384" y="160" width="32" height="32"/>
    <rect class="st4" x="416" y="160" width="32" height="32"/>
    <rect class="st4" x="448" y="160" width="32" height="32"/>
    <rect class="st4" x="480" y="160" width="32" height="32"/>
    <rect class="st4" y="192" width="32" height="32"/>
    <rect class="st4" x="32" y="192" width="32" height="32"/>
    <rect class="st4" x="64" y="192" width="32" height="32"/>
    <rect class="st4" x="96" y="192" width="32" height="32"/>
    <rect class="st4" x="128" y="192" width="32" height="32"/>
    <rect class="st4" x="160" y="192" width="32" height="32"/>
    <rect class="st4" x="192" y="192" width="32" height="32"/>
    <rect class="st4" x="224" y="192" width="32" height="32"/>
    <rect class="st4" x="256" y="192" width="32" height="32"/>
    <rect class="st4" x="288" y="192" width="32" height="32"/>
    <rect class="st4" x="320" y="192" width="32" height="32"/>
    <rect class="st4" x="352" y="192" width="32" height="32"/>
    <rect class="st4" x="384" y="192" width="32" height="32"/>
    <rect class="st4" x="416" y="192" width="32" height="32"/>
    <rect class="st4" x="448" y="192" width="32" height="32"/>
    <rect class="st4" x="480" y="192" width="32" height="32"/>
    <rect class="st4" y="224" width="32" height="32"/>
    <rect class="st4" x="32" y="224" width="32" height="32"/>
    <rect class="st4" x="64" y="224" width="32" height="32"/>
    <rect class="st4" x="96" y="224" width="32" height="32"/>
    <rect class="st4" x="128" y="224" width="32" height="32"/>
    <rect class="st4" x="160" y="224" width="32" height="32"/>
    <rect class="st4" x="192" y="224" width="32" height="32"/>
    <rect class="st4" x="224" y="224" width="32" height="32"/>
    <rect class="st4" x="256" y="224" width="32" height="32"/>
    <rect class="st4" x="288" y="224" width="32" height="32"/>
    <rect class="st4" x="320" y="224" width="32" height="32"/>
    <rect class="st4" x="352" y="224" width="32" height="32"/>
    <rect class="st4" x="384" y="224" width="32" height="32"/>
    <rect class="st4" x="416" y="224" width="32" height="32"/>
    <rect class="st4" x="448" y="224" width="32" height="32"/>
    <rect class="st4" x="480" y="224" width="32" height="32"/>
    <rect class="st4" y="256" width="32" height="32"/>
    <rect class="st4" x="32" y="256" width="32" height="32"/>
    <rect class="st4" x="64" y="256" width="32" height="32"/>
    <rect class="st4" x="96" y="256" width="32" height="32"/>
    <rect class="st4" x="128" y="256" width="32" height="32"/>
    <rect class="st4" x="160" y="256" width="32" height="32"/>
    <rect class="st4" x="192" y="256" width="32" height="32"/>
    <rect class="st4" x="224" y="256" width="32" height="32"/>
    <rect class="st4" x="256" y="256" width="32" height="32"/>
    <rect class="st4" x="288" y="256" width="32" height="32"/>
    <rect class="st4" x="320" y="256" width="32" height="32"/>
    <rect class="st4" x="352" y="256" width="32" height="32"/>
    <rect class="st4" x="384" y="256" width="32" height="32"/>
    <rect class="st4" x="416" y="256" width="32" height="32"/>
    <rect class="st4" x="448" y="256" width="32" height="32"/>
    <rect class="st4" x="480" y="256" width="32" height="32"/>
    <rect class="st4" y="288" width="32" height="32"/>
    <rect class="st4" x="32" y="288" width="32" height="32"/>
    <rect class="st4" x="64" y="288" width="32" height="32"/>
    <rect class="st4" x="96" y="288" width="32" height="32"/>
    <rect class="st4" x="128" y="288" width="32" height="32"/>
    <rect class="st4" x="160" y="288" width="32" height="32"/>
    <rect class="st4" x="192" y="288" width="32" height="32"/>
    <rect class="st4" x="224" y="288" width="32" height="32"/>
    <rect class="st4" x="256" y="288" width="32" height="32"/>
    <rect class="st4" x="288" y="288" width="32" height="32"/>
    <rect class="st4" x="320" y="288" width="32" height="32"/>
    <rect class="st4" x="352" y="288" width="32" height="32"/>
    <rect class="st4" x="384" y="288" width="32" height="32"/>
    <rect class="st4" x="416" y="288" width="32" height="32"/>
    <rect class="st4" x="448" y="288" width="32" height="32"/>
    <rect class="st4" x="480" y="288" width="32" height="32"/>
    <rect class="st4" y="320" width="32" height="32"/>
    <rect class="st4" x="32" y="320" width="32" height="32"/>
    <rect class="st4" x="64" y="320" width="32" height="32"/>
    <rect class="st4" x="96" y="320" width="32" height="32"/>
    <rect class="st4" x="128" y="320" width="32" height="32"/>
    <rect class="st4" x="160" y="320" width="32" height="32"/>
    <rect class="st4" x="192" y="320" width="32" height="32"/>
    <rect class="st4" x="224" y="320" width="32" height="32"/>
    <rect class="st4" x="256" y="320" width="32" height="32"/>
    <rect class="st4" x="288" y="320" width="32" height="32"/>
    <rect class="st4" x="320" y="320" width="32" height="32"/>
    <rect class="st4" x="352" y="320" width="32" height="32"/>
    <rect class="st4" x="384" y="320" width="32" height="32"/>
    <rect class="st4" x="416" y="320" width="32" height="32"/>
    <rect class="st4" x="448" y="320" width="32" height="32"/>
    <rect class="st4" x="480" y="320" width="32" height="32"/>
    <rect class="st4" y="352" width="32" height="32"/>
    <rect class="st4" x="32" y="352" width="32" height="32"/>
    <rect class="st4" x="64" y="352" width="32" height="32"/>
    <rect class="st4" x="96" y="352" width="32" height="32"/>
    <rect class="st4" x="128" y="352" width="32" height="32"/>
    <rect class="st4" x="160" y="352" width="32" height="32"/>
    <rect class="st4" x="192" y="352" width="32" height="32"/>
    <rect class="st4" x="224" y="352" width="32" height="32"/>
    <rect class="st4" x="256" y="352" width="32" height="32"/>
    <rect class="st4" x="288" y="352" width="32" height="32"/>
    <rect class="st4" x="320" y="352" width="32" height="32"/>
    <rect class="st4" x="352" y="352" width="32" height="32"/>
    <rect class="st4" x="384" y="352" width="32" height="32"/>
    <rect class="st4" x="416" y="352" width="32" height="32"/>
    <rect class="st4" x="448" y="352" width="32" height="32"/>
    <rect class="st4" x="480" y="352" width="32" height="32"/>
    <rect class="st4" y="384" width="32" height="32"/>
    <rect class="st4" x="32" y="384" width="32" height="32"/>
    <rect class="st4" x="64" y="384" width="32" height="32"/>
    <rect class="st4" x="96" y="384" width="32" height="32"/>
    <rect class="st4" x="128" y="384" width="32" height="32"/>
    <rect class="st4" x="160" y="384" width="32" height="32"/>
    <rect class="st4" x="192" y="384" width="32" height="32"/>
    <rect class="st4" x="224" y="384" width="32" height="32"/>
    <rect class="st4" x="256" y="384" width="32" height="32"/>
    <rect class="st4" x="288" y="384" width="32" height="32"/>
    <rect class="st4" x="320" y="384" width="32" height="32"/>
    <rect class="st4" x="352" y="384" width="32" height="32"/>
    <rect class="st4" x="384" y="384" width="32" height="32"/>
    <rect class="st4" x="416" y="384" width="32" height="32"/>
    <rect class="st4" x="448" y="384" width="32" height="32"/>
    <rect class="st4" x="480" y="384" width="32" height="32"/>
    <rect class="st4" y="416" width="32" height="32"/>
    <rect class="st4" x="32" y="416" width="32" height="32"/>
    <rect class="st4" x="64" y="416" width="32" height="32"/>
    <rect class="st4" x="96" y="416" width="32" height="32"/>
    <rect class="st4" x="128" y="416" width="32" height="32"/>
    <rect class="st4" x="160" y="416" width="32" height="32"/>
    <rect class="st4" x="192" y="416" width="32" height="32"/>
    <rect class="st4" x="224" y="416" width="32" height="32"/>
    <rect class="st4" x="256" y="416" width="32" height="32"/>
    <rect class="st4" x="288" y="416" width="32" height="32"/>
    <rect class="st4" x="320" y="416" width="32" height="32"/>
    <rect class="st4" x="352" y="416" width="32" height="32"/>
    <rect class="st4" x="384" y="416" width="32" height="32"/>
    <rect class="st4" x="416" y="416" width="32" height="32"/>
    <rect class="st4" x="448" y="416" width="32" height="32"/>
    <rect class="st4" x="480" y="416" width="32" height="32"/>
    <rect class="st4" y="448" width="32" height="32"/>
    <rect class="st4" x="32" y="448" width="32" height="32"/>
    <rect class="st4" x="64" y="448" width="32" height="32"/>
    <rect class="st4" x="96" y="448" width="32" height="32"/>
    <rect class="st4" x="128" y="448" width="32" height="32"/>
    <rect class="st4" x="160" y="448" width="32" height="32"/>
    <rect class="st4" x="192" y="448" width="32" height="32"/>
    <rect class="st4" x="224" y="448" width="32" height="32"/>
    <rect class="st4" x="256" y="448" width="32" height="32"/>
    <rect class="st4" x="288" y="448" width="32" height="32"/>
    <rect class="st4" x="320" y="448" width="32" height="32"/>
    <rect class="st4" x="352" y="448" width="32" height="32"/>
    <rect class="st4" x="384" y="448" width="32" height="32"/>
    <rect class="st4" x="416" y="448" width="32" height="32"/>
    <rect class="st4" x="448" y="448" width="32" height="32"/>
    <rect class="st4" x="480" y="448" width="32" height="32"/>
    <rect class="st4" y="480" width="32" height="32"/>
    <rect class="st4" x="32" y="480" width="32" height="32"/>
    <rect class="st4" x="64" y="480" width="32" height="32"/>
    <rect class="st4" x="96" y="480" width="32" height="32"/>
    <rect class="st4" x="128" y="480" width="32" height="32"/>
    <rect class="st4" x="160" y="480" width="32" height="32"/>
    <rect class="st4" x="192" y="480" width="32" height="32"/>
    <rect class="st4" x="224" y="480" width="32" height="32"/>
    <rect class="st4" x="256" y="480" width="32" height="32"/>
    <rect class="st4" x="288" y="480" width="32" height="32"/>
    <rect class="st4" x="320" y="480" width="32" height="32"/>
    <rect class="st4" x="352" y="480" width="32" height="32"/>
    <rect class="st4" x="384" y="480" width="32" height="32"/>
    <rect class="st4" x="416" y="480" width="32" height="32"/>
    <rect class="st4" x="448" y="480" width="32" height="32"/>
    <rect class="st4" x="480" y="480" width="32" height="32"/>
  </g>
  <path class="st1" d="M396,128.3H116c-22.1,0-40,17.9-40,40v175.5c0,22.1,17.9,40,40,40h280c22.1,0,40-17.9,40-40v-175.5c0-22.1-17.9-40-40-40ZM245.3,292.5c-2.5,6.5-5.6,12.2-9.3,17.1-5.8,7.5-12.9,13.2-21.5,17-8.6,3.8-19.5,5.7-32.7,5.7s-29.2-2.3-39.3-7c-10.2-4.7-19-12.9-26.3-24.6-7.4-11.7-11.1-26.8-11.1-45.1s6.5-43.2,19.5-56.3c13-13.1,31.4-19.7,55.1-19.7s33.2,3.8,43.9,11.3c7.5,5.3,13.7,12.6,18.4,21.9,3.2,6.3-.5,14-7.4,15.5l-18.6,4.1c-4.8,1.1-9.7-1.3-12.1-5.7-.5-.8-.9-1.6-1.4-2.2-2.6-3.5-5.7-6.2-9.4-8.1-3.7-1.9-7.8-2.8-12.4-2.8-10.3,0-18.3,4.2-23.8,12.5-4.2,6.2-6.2,15.9-6.2,29.1s2.5,27.6,7.5,33.7c5,6.1,12,9.1,21,9.1s15.3-2.5,19.8-7.4c2.8-3,5.1-7,6.9-11.7,2-5.3,7.9-8.1,13.3-6.5l19,5.8c6,1.8,9.3,8.3,7.1,14.2ZM406.5,290.6c-2.6,7.3-5.9,13.6-10,19-5.8,7.5-12.9,13.2-21.5,17-8.6,3.8-19.5,5.7-32.7,5.7s-29.2-2.3-39.3-7c-10.2-4.7-19-12.9-26.3-24.6-7.4-11.7-11.1-26.8-11.1-45.1s6.5-43.2,19.5-56.3c13-13.1,31.4-19.7,55.1-19.7s33.2,3.8,43.9,11.3c8.1,5.7,14.6,13.8,19.5,24.1,2.5,5.3-.6,11.6-6.4,12.9l-22,4.9c-4.2.9-8.4-1.2-10.3-5.1-.6-1.2-1.2-2.2-1.8-3.1-2.6-3.5-5.7-6.2-9.4-8.1-3.7-1.9-7.8-2.8-12.4-2.8-10.3,0-18.3,4.2-23.8,12.5-4.2,6.2-6.2,15.9-6.2,29.1s2.5,27.6,7.5,33.7c5,6.1,12,9.1,21,9.1s15.3-2.5,19.8-7.4c2.8-3,5.1-7,6.9-11.7,2-5.3,7.9-8.1,13.3-6.5l20.8,6.3c5,1.5,7.8,6.8,6.1,11.8Z"/>
</svg>